<?xml version="1.0" standalone="no"?><!DOCTYPE svg PUBLIC "-//W3C//DTD SVG 1.1//EN" "http://www.w3.org/Graphics/SVG/1.1/DTD/svg11.dtd"><svg t="1713696812066" class="icon" viewBox="0 0 1024 1024" version="1.1" xmlns="http://www.w3.org/2000/svg" p-id="20353" xmlns:xlink="http://www.w3.org/1999/xlink" width="200" height="200"><path d="M775.111111 390.428444l169.699556-169.699555a62.293333 62.293333 0 0 0 0-88.689778 62.691556 62.691556 0 0 0-88.405334 0L686.648889 301.738667l88.405333 88.689777z m-158.264889 42.268445c-54.613333-53.020444-109.169778-106.097778-163.612444-159.232-2.901333-2.844444-4.266667-3.072-7.111111 0.170667-12.515556 14.791111-26.055111 28.444444-40.732445 41.130666A415.687111 415.687111 0 0 1 113.948444 418.474667c0 0.625778 0.170667 1.308444 0.398223 1.877333l46.876444 89.144889a5.006222 5.006222 0 0 0 5.12 2.844444 183.182222 183.182222 0 0 0 40.334222-3.015111 482.019556 482.019556 0 0 0 74.638223-20.48c9.614222-3.299556 19.171556-6.826667 29.411555-10.581333a104.220444 104.220444 0 0 1-25.486222 43.576889c-22.357333 23.381333-48.64 42.666667-77.653333 56.888889-4.664889 2.275556-4.664889 3.868444-1.763556 7.850666 32.199111 42.666667 64.284444 85.390222 96.312889 128.341334 3.470222 4.721778 5.518222 4.323556 9.784889 1.251555 56.092444-39.708444 112.298667-79.303111 168.618666-118.727111 1.536-1.080889 2.844444-2.844444 5.859556-2.446222l-3.868444 5.688889-118.897778 169.187555c-2.446222 3.470222-2.730667 5.233778 1.080889 8.021334 30.378667 22.471111 60.700444 45.112889 90.908444 67.982222a4.892444 4.892444 0 0 0 7.736889-0.455111c4.551111-4.380444 9.841778-8.078222 15.530667-10.922667a207.189333 207.189333 0 0 1 83.285333-19.911111c1.137778 0.284444 2.616889-0.170667 3.640889 1.080889a56.888889 56.888889 0 0 0-14.961778 11.662222 266.410667 266.410667 0 0 0-34.702222 51.882667c-1.763556 3.356444-0.967111 4.551111 2.048 6.144 28.444444 14.791111 56.775111 29.809778 85.048889 44.942222 3.527111 1.820444 5.006222 1.934222 5.973333-2.787556a346.851556 346.851556 0 0 1 42.211556-104.106666 1021.326222 1021.326222 0 0 1 154.851555-198.087111c3.754667-3.811556 3.754667-5.518222-0.056889-9.102223a45441.877333 45441.877333 0 0 1-189.383111-183.523555z m228.465778 64.967111c-55.921778-53.304889-111.274667-107.235556-166.798222-160.881778-39.025778-37.774222-78.051556-75.491556-117.191111-113.152a51.2 51.2 0 0 0-48.583111-13.653333c-16.782222 4.323556-31.630222 14.222222-42.097778 28.046222-6.144 7.224889-6.144 7.224889 0.739555 13.880889a608963.128889 608963.128889 0 0 1 365.511111 346.282667c1.877333 1.763556 3.072 3.640889 5.916445 0.739555 14.449778-13.937778 22.471111-33.28 22.186667-53.361778a53.873778 53.873778 0 0 0-1.763556-14.392888 62.179556 62.179556 0 0 0-17.92-33.507556z" fill="#000000" p-id="20354"></path></svg>