<?xml version="1.0" standalone="no"?><!DOCTYPE svg PUBLIC "-//W3C//DTD SVG 1.1//EN" "http://www.w3.org/Graphics/SVG/1.1/DTD/svg11.dtd"><svg t="1713849979759" class="icon" viewBox="0 0 1024 1024" version="1.1" xmlns="http://www.w3.org/2000/svg" p-id="13746" xmlns:xlink="http://www.w3.org/1999/xlink" width="200" height="200"><path d="M480.070358 783.197282c4.40056 4.912253 10.643214 7.470718 16.78353 7.470718 0.307016 0 0.614032 0 0.921047 0 0.307016 0 0.614032 0 0.921047 0 6.140316 0 12.280632-2.558465 16.78353-7.470718l171.621827-191.475515c80.642814-86.885469 54.648811-207.13332 53.523086-212.25025l-0.307016-1.125725c-29.1665-104.897062-98.142714-149.721367-150.847092-168.961023-27.222067-9.926844-52.704377-14.020388-72.148711-15.657805-1.023386-0.204677-2.149111-0.409354-3.172497-0.511693-0.71637-0.102339-6.652009-0.511693-16.271837-0.409354-9.619828-0.102339-15.555467 0.409354-16.271837 0.409354-1.125725 0.102339-2.149111 0.307016-3.172497 0.511693-19.444333 1.637418-45.028983 5.8333-72.148711 15.657805-52.704377 19.239656-121.680592 64.063962-150.847092 168.961023l-0.307016 1.125725c-1.125725 5.11693-27.222067 125.46712 53.523086 212.25025L480.070358 783.197282zM298.828703 389.807715c19.239656-68.464521 59.970418-114.721567 121.168899-137.440736 32.953028-12.280632 63.654607-14.327404 79.210074-14.532081 15.964821 0.307016 44.107935 2.763142 74.707176 13.918049 62.01719 22.61683 103.259644 68.976214 122.703978 138.054767 0.71637 3.684189 5.423946 28.552469 2.865481 60.686788-3.581851 44.824305-18.93264 82.075555-45.643014 110.730362l-0.102339 0.204677L497.774935 735.405157 341.810913 561.531881l-0.307016-0.307016c-26.710374-28.654807-42.061163-65.906056-45.643014-110.730362C293.404757 418.257845 298.112333 393.287228 298.828703 389.807715z" p-id="13747"></path><path d="M497.877274 532.672397c51.373976 0 93.128123-41.754148 93.128123-93.128123s-41.754148-93.128123-93.128123-93.128123-93.128123 41.754148-93.128123 93.128123S446.503298 532.672397 497.877274 532.672397zM497.877274 391.445133c26.505697 0 48.099141 21.593444 48.099141 48.099141s-21.593444 48.099141-48.099141 48.099141-48.099141-21.593444-48.099141-48.099141S471.371577 391.445133 497.877274 391.445133z" p-id="13748"></path></svg>