<?xml version="1.0" standalone="no"?><!DOCTYPE svg PUBLIC "-//W3C//DTD SVG 1.1//EN" "http://www.w3.org/Graphics/SVG/1.1/DTD/svg11.dtd"><svg t="1713849791760" class="icon" viewBox="0 0 1024 1024" version="1.1" xmlns="http://www.w3.org/2000/svg" p-id="12731" xmlns:xlink="http://www.w3.org/1999/xlink" width="200" height="200"><path d="M704 298.666667l36.394667-181.956267A39.035733 39.035733 0 0 1 778.666667 85.333333a26.235733 26.235733 0 0 1 25.728 31.377067L768 298.666667h138.666667a32 32 0 1 1 0 64H755.2l-59.733333 298.666666h211.2a32 32 0 1 1 0 64H682.666667l-36.394667 181.956267A39.035733 39.035733 0 0 1 608 938.666667a26.235733 26.235733 0 0 1-25.728-31.377067L618.666667 725.333333H320l-36.394667 181.956267A39.035733 39.035733 0 0 1 245.333333 938.666667a26.235733 26.235733 0 0 1-25.728-31.377067L256 725.333333H117.333333a32 32 0 1 1 0-64H268.8l59.733333-298.666666H117.333333a32 32 0 0 1 0-64H341.333333l36.394667-181.956267A39.035733 39.035733 0 0 1 416 85.333333a26.235733 26.235733 0 0 1 25.728 31.377067L405.333333 298.666667h298.666667z m-12.8 64H392.533333l-59.733333 298.666666h298.666667l59.733333-298.666666z" fill="#333333" p-id="12732"></path></svg>