<?xml version="1.0" standalone="no"?><!DOCTYPE svg PUBLIC "-//W3C//DTD SVG 1.1//EN" "http://www.w3.org/Graphics/SVG/1.1/DTD/svg11.dtd"><svg t="1713698180900" class="icon" viewBox="0 0 1024 1024" version="1.1" xmlns="http://www.w3.org/2000/svg" p-id="40897" xmlns:xlink="http://www.w3.org/1999/xlink" width="200" height="200"><path d="M678.7584 435.2H352.3584a46.08 46.08 0 1 1 0-92.16h326.4a46.08 46.08 0 0 1 0 92.16zM521.1648 594.6368h-168.96a46.08 46.08 0 1 1 0-92.16h168.96a46.08 46.08 0 0 1 0 92.16z" fill="#FC5B67" p-id="40898"></path><path d="M375.9104 949.504a76.288 76.288 0 0 1-76.2368-76.1856v-67.3792a2.0992 2.0992 0 0 0-2.0992-2.0992h-13.056a182.7328 182.7328 0 0 1-182.528-182.528V296.96a182.7328 182.7328 0 0 1 182.528-182.3232h470.3744A182.784 182.784 0 0 1 937.472 296.96v324.1472A182.784 182.784 0 0 1 754.8928 803.84h-170.9056a1.9968 1.9968 0 0 0-1.3312 0.4608l-159.1808 128a75.4688 75.4688 0 0 1-47.5648 17.2032zM284.5184 206.7968A90.4192 90.4192 0 0 0 194.1504 296.96v324.1472A90.4704 90.4704 0 0 0 284.5184 711.68h13.056a94.3616 94.3616 0 0 1 94.2592 94.2592V839.68l133.12-107.2128a94.8736 94.8736 0 0 1 59.0336-20.7872h170.9056a90.4704 90.4704 0 0 0 90.4192-90.368V296.96a90.4704 90.4704 0 0 0-90.4192-90.368z" fill="#FC5B67" p-id="40899"></path></svg>