<?xml version="1.0" standalone="no"?><!DOCTYPE svg PUBLIC "-//W3C//DTD SVG 1.1//EN" "http://www.w3.org/Graphics/SVG/1.1/DTD/svg11.dtd"><svg t="1713594130447" class="icon" viewBox="0 0 1024 1024" version="1.1" xmlns="http://www.w3.org/2000/svg" p-id="9222" xmlns:xlink="http://www.w3.org/1999/xlink" width="200" height="200"><path d="M265.6 441.6c1.28 0.64 2.56 0.64 3.84 0.64 7.04 0 13.44-4.48 15.36-12.16 28.8-107.52 126.72-183.04 238.08-183.04 83.84 0 159.36 41.6 204.16 108.16l-42.88 21.12 104.96 71.04 8.96-126.72-42.24 20.48c-50.56-77.44-136.96-126.08-232.96-126.08-126.08 0-236.8 85.12-269.44 206.72-1.28 8.96 3.84 17.92 12.16 19.84zM783.36 534.4c-8.32-1.92-17.28 3.84-19.2 12.16-24.32 112.64-125.44 193.92-241.28 193.92-96 0-181.12-55.04-221.44-138.24l44.8-21.76-104.96-71.04-8.96 126.72 40.32-19.84c46.08 94.08 142.08 156.16 250.24 156.16 130.56 0 244.48-92.16 272-219.52 2.56-8.32-2.56-16.64-11.52-18.56z" fill="" p-id="9223"></path></svg>