<?xml version="1.0" standalone="no"?><!DOCTYPE svg PUBLIC "-//W3C//DTD SVG 1.1//EN" "http://www.w3.org/Graphics/SVG/1.1/DTD/svg11.dtd"><svg t="1713698242503" class="icon" viewBox="0 0 1160 1024" version="1.1" xmlns="http://www.w3.org/2000/svg" p-id="44611" xmlns:xlink="http://www.w3.org/1999/xlink" width="226.5625" height="200"><path d="M1122.502233 834.094794l-182.464636 189.768682-182.532897-189.768682a137.616426 137.616426 0 0 1 0-189.836945 125.80708 125.80708 0 0 1 182.532897 0 125.875342 125.875342 0 0 1 140.893008-29.079661c15.700287 6.826212 29.830545 16.655956 41.571628 29.079661a137.616426 137.616426 0 0 1 0 189.768683z m-588.555963-322.197187a255.027265 255.027265 0 0 1-235.913872-158.026798 256.460769 256.460769 0 0 1 55.292314-278.919006 255.232051 255.232051 0 0 1 435.990134 180.962869A256.460769 256.460769 0 0 1 714.567829 436.877541 255.300313 255.300313 0 0 1 533.94627 511.965869z m116.113859 93.041264c8.327978 0 16.724218 0.409573 25.052197 0.887407a217.414839 217.414839 0 0 0 8.327978 285.745217l124.919672 132.087194H0c0-231.203786 187.038197-418.719819 417.900673-418.719818h232.159456z" fill="#1890FF" p-id="44612"></path></svg>