<?xml version="1.0" standalone="no"?><!DOCTYPE svg PUBLIC "-//W3C//DTD SVG 1.1//EN" "http://www.w3.org/Graphics/SVG/1.1/DTD/svg11.dtd"><svg t="1713767374505" class="icon" viewBox="0 0 1024 1024" version="1.1" xmlns="http://www.w3.org/2000/svg" p-id="5144" xmlns:xlink="http://www.w3.org/1999/xlink" width="200" height="200"><path d="M821.333333 629.282133c-108.714667 0.955733-196.1472 89.685333-195.515733 198.4 0.631467 108.714667 89.105067 196.4032 197.802667 196.096 108.714667-0.324267 196.693333-88.5248 196.693333-197.239466a197.905067 197.905067 0 0 0-198.997333-197.256534z m88.098134 224.8192h-62.498134v63.351467a27.136 27.136 0 0 1-54.033066 0v-63.146667h-59.682134a26.248533 26.248533 0 0 1-26.6752-27.562666c0-14.728533 11.946667-26.6752 26.6752-26.6752h59.682134v-65.109334a27.136 27.136 0 0 1 54.033066 0v65.109334h62.498134a26.043733 26.043733 0 0 1 27.3408 26.6752 26.914133 26.914133 0 0 1-26.4704 27.562666l-0.8704-0.2048z m-328.533334-27.357866a238.6944 238.6944 0 0 1 198.997334-233.915734 443.7504 443.7504 0 0 0-209.2032-134.0928 234.359467 234.359467 0 0 0 123.904-214.613333C690.6368 110.660267 581.307733 4.5056 447.761067 4.5056c-133.5296 0-242.858667 106.154667-246.818134 239.616a233.2672 233.2672 0 0 0 120.2176 214.613333A449.194667 449.194667 0 0 0 3.6864 886.4256c0 80.725333 2.816 85.282133 91.784533 86.801067h534.903467a243.473067 243.473067 0 0 1-49.493333-146.4832z" fill="#979CB3" p-id="5145"></path></svg>