<?xml version="1.0" standalone="no"?><!DOCTYPE svg PUBLIC "-//W3C//DTD SVG 1.1//EN" "http://www.w3.org/Graphics/SVG/1.1/DTD/svg11.dtd"><svg t="1713253744879" class="icon" viewBox="0 0 1024 1024" version="1.1" xmlns="http://www.w3.org/2000/svg" p-id="4253" xmlns:xlink="http://www.w3.org/1999/xlink" width="200" height="200"><path d="M841.085552 395.21211c-62.669318 0-113.472378 49.541323-113.472378 110.642936 0 61.093427 50.80306 110.652146 113.472378 110.652146 62.685691 0 113.487727-49.559742 113.487727-110.652146C954.573279 444.75241 903.77022 395.21211 841.085552 395.21211zM500.653069 395.21211c-62.668295 0-113.487727 49.541323-113.487727 110.642936 0 61.093427 50.820456 110.652146 113.487727 110.652146 62.669318 0 113.472378-49.559742 113.472378-110.652146C614.125447 444.75241 563.322387 395.21211 500.653069 395.21211zM182.915471 395.21211c-62.686714 0-113.488751 49.541323-113.488751 110.642936 0 61.093427 50.802036 110.652146 113.488751 110.652146 62.669318 0 113.471354-49.559742 113.471354-110.652146C296.385802 444.75241 245.583766 395.21211 182.915471 395.21211z" p-id="4254"></path></svg>