<?xml version="1.0" standalone="no"?><!DOCTYPE svg PUBLIC "-//W3C//DTD SVG 1.1//EN" "http://www.w3.org/Graphics/SVG/1.1/DTD/svg11.dtd"><svg t="1713331800141" class="icon" viewBox="0 0 1024 1024" version="1.1" xmlns="http://www.w3.org/2000/svg" p-id="5201" xmlns:xlink="http://www.w3.org/1999/xlink" width="200" height="200"><path d="M64.383234 64.383234 120.335329 64.383234 120.335329 288.191617 64.383234 288.191617 64.383234 64.383234ZM120.335329 64.383234 288.191617 64.383234 288.191617 120.335329 120.335329 120.335329 120.335329 64.383234ZM959.616766 64.383234 903.664671 64.383234 903.664671 288.191617 959.616766 288.191617 959.616766 64.383234ZM903.664671 64.383234 735.808383 64.383234 735.808383 120.335329 903.664671 120.335329 903.664671 64.383234ZM64.383234 959.616766 120.335329 959.616766 120.335329 735.808383 64.383234 735.808383 64.383234 959.616766ZM120.335329 959.616766 288.191617 959.616766 288.191617 903.664671 120.335329 903.664671 120.335329 959.616766ZM959.616766 959.616766 903.664671 959.616766 903.664671 735.808383 959.616766 735.808383 959.616766 959.616766ZM903.664671 959.616766 735.808383 959.616766 735.808383 903.664671 903.664671 903.664671 903.664671 959.616766ZM120.335329 484.023952 903.664671 484.023952 903.664671 539.976048 120.335329 539.976048 120.335329 484.023952Z" fill="#9B9B9B" p-id="5202"></path></svg>