<?xml version="1.0" standalone="no"?><!DOCTYPE svg PUBLIC "-//W3C//DTD SVG 1.1//EN" "http://www.w3.org/Graphics/SVG/1.1/DTD/svg11.dtd"><svg t="1713698020127" class="icon" viewBox="0 0 1144 1024" version="1.1" xmlns="http://www.w3.org/2000/svg" p-id="22210" xmlns:xlink="http://www.w3.org/1999/xlink" width="223.4375" height="200"><path d="M195.04171 451.765211C220.400747 451.765211 240.940964 471.462135 240.940964 495.797172v484.170867C240.940964 1004.303076 220.400747 1024 195.04171 1024H45.899254C20.540217 1024 0 1004.303076 0 979.968039V495.797172C0 471.462135 20.540217 451.765211 45.899254 451.765211zM590.245126 0.603256c47.676193-6.625877 105.110495 41.321375 133.872823 144.41399 12.468695 73.6677-6.776465 129.776827-33.731735 198.59559a12.348224 12.348224 0 0 0 1.686587 11.053166 12.197636 12.197636 0 0 0 9.87858 5.089878h320.300893c67.493588 0 122.217304 55.05501 122.217304 123.000362 0 44.393373-124.988125 423.212803-135.529292 458.902184C998.399119 977.317688 972.196789 1024 876.573344 1024H570.066321a841.06467 841.06467 0 0 1-200.854411-23.190568 2643.42355 2643.42355 0 0 0-48.248428-9.848462 24.575978 24.575978 0 0 1-19.787277-24.154331V469.11296c0-8.071522 3.915291-15.661163 10.541167-20.269158C404.90129 384.151153 508.987786 251.964917 508.987786 101.497285A98.243678 98.243678 0 0 1 590.245126 0.603256z" fill="#FF6C18" p-id="22211"></path></svg>